<?xml version="1.0" encoding="utf-8"?>
<svg viewBox="0 0 256 256" xmlns="http://www.w3.org/2000/svg">
  <rect width="256" height="256" style="paint-order: fill; fill: rgb(20, 51, 93); stroke-width: 0px;" fill="none" fill-rule="evenodd">
    <title>background</title>
  </rect>
  <path d="M 159.12 108.738 C 159.12 117.941 159.353 125.615 154.701 133.787 C 150.947 140.432 145.001 144.518 138.357 144.518 C 129.287 144.518 124.005 137.608 124.005 127.409 C 124.005 107.276 142.043 103.622 159.12 103.622 L 159.12 108.738 Z M 182.94 166.311 C 181.378 167.706 179.119 167.806 177.358 166.876 C 169.518 160.365 168.123 157.342 163.804 151.129 C 150.848 164.351 141.679 168.304 124.869 168.304 C 105.002 168.304 89.521 156.045 89.521 131.495 C 89.521 112.327 99.92 99.27 114.702 92.892 C 127.526 87.244 145.433 86.247 159.12 84.687 L 159.12 81.63 C 159.12 76.015 159.551 69.371 156.263 64.521 C 153.372 60.169 147.858 58.375 143.007 58.375 C 134.004 58.375 125.965 62.992 124.005 72.56 C 123.606 74.687 122.045 76.78 119.919 76.879 L 96.996 74.421 C 95.069 73.989 92.943 72.428 93.475 69.471 C 98.757 41.698 123.838 33.326 146.295 33.326 C 157.79 33.326 172.806 36.382 181.876 45.087 C 193.371 55.817 192.274 70.135 192.274 85.716 L 192.274 122.525 C 192.274 133.588 196.859 138.438 201.177 144.418 C 202.705 146.544 203.038 149.103 201.111 150.697 C 196.294 154.716 187.722 162.192 183.005 166.378 L 182.939 166.311" style="fill: rgb(115, 234, 239);" fill="none" fill-rule="evenodd">
    <title>amazon-a</title>
  </path>
  <path d="M 208.471 192.473 C 121.317 233.951 67.228 199.248 32.605 178.17 C 30.462 176.841 26.82 178.48 29.98 182.109 C 41.515 196.096 79.317 229.807 128.661 229.807 C 178.038 229.807 207.413 202.864 211.087 198.164 C 214.737 193.504 212.159 190.934 208.47 192.473 L 208.471 192.473 Z M 232.948 178.956 C 230.608 175.908 218.717 175.34 211.233 176.259 C 203.738 177.152 192.488 181.732 193.466 184.483 C 193.968 185.513 194.992 185.051 200.141 184.588 C 205.304 184.073 219.768 182.248 222.781 186.187 C 225.809 190.154 218.168 209.052 216.773 212.1 C 215.425 215.147 217.288 215.933 219.821 213.903 C 222.318 211.874 226.84 206.619 229.875 199.183 C 232.888 191.706 234.726 181.276 232.947 178.956 L 232.948 178.956 Z" fill-rule="nonzero" style="fill: rgb(115, 234, 239);" fill="none">
    <title>amazon-smile</title>
  </path>
  <path style="fill: rgb(115, 234, 239);" d="M 85.567 54.362 C 85.567 57.458 83.055 59.97 79.96 59.97 C 64.478 59.97 51.924 72.524 51.924 88.006 C 51.924 92.323 47.253 95.02 43.513 92.862 C 41.779 91.858 40.708 90.007 40.708 88.006 C 40.708 72.524 28.16 59.97 12.672 59.97 C 8.355 59.97 5.658 55.299 7.816 51.557 C 8.82 49.825 10.671 48.754 12.672 48.754 C 28.16 48.754 40.708 36.2 40.708 20.718 C 40.708 16.4 45.379 13.704 49.121 15.863 C 50.857 16.866 51.924 18.716 51.924 20.718 C 51.924 36.2 64.478 48.754 79.96 48.754 C 83.055 48.754 85.567 51.267 85.567 54.362 Z">
    <title>sparkle-big</title>
  </path>
  <path style="fill: rgb(115, 234, 239);" d="M 71.947 138.665 C 71.947 140.28 70.636 141.59 69.022 141.59 C 60.946 141.59 54.397 148.139 54.397 156.214 C 54.397 158.466 51.961 159.873 50.01 158.747 C 49.106 158.224 48.548 157.258 48.548 156.214 C 48.548 148.139 42.002 141.59 33.924 141.59 C 31.672 141.59 30.265 139.154 31.391 137.203 C 31.914 136.299 32.88 135.741 33.924 135.741 C 42.002 135.741 48.548 129.192 48.548 121.116 C 48.548 118.864 50.984 117.458 52.935 118.584 C 53.842 119.107 54.397 120.072 54.397 121.116 C 54.397 129.192 60.946 135.741 69.022 135.741 C 70.636 135.741 71.947 137.051 71.947 138.665 Z">
    <title>sparkle-small</title>
  </path>
</svg>